<?xml version="1.0" encoding="utf-8"?>
<!-- Generator: Adobe Illustrator 25.1.0, SVG Export Plug-In . SVG Version: 6.00 Build 0)  -->
<svg version="1.1" id="レイヤー_1" xmlns="http://www.w3.org/2000/svg" xmlns:xlink="http://www.w3.org/1999/xlink" x="0px"
	 y="0px" viewBox="0 0 50 50" style="enable-background:new 0 0 50 50;" xml:space="preserve">
<style type="text/css">
	.st0{fill:#FFFFFF;stroke:#000000;stroke-miterlimit:10;}
	.st1{fill:#FFFFFF;}
	.st2{font-family:'Arial-Black';}
	.st3{font-size:12px;}
</style>
<path class="st0" d="M10.5,11.5"/>
<path class="st1" d="M40.7,10H11.3C10.58,10,10,9.42,10,8.7V8.3C10,7.58,10.58,7,11.3,7h29.4C41.42,7,42,7.58,42,8.3v0.4
	C42,9.42,41.42,10,40.7,10z"/>
<path class="st1" d="M40.7,19.5H11.3c-0.72,0-1.3-0.58-1.3-1.3v-0.4c0-0.72,0.58-1.3,1.3-1.3h29.4c0.72,0,1.3,0.58,1.3,1.3v0.4
	C42,18.92,41.42,19.5,40.7,19.5z"/>
<path class="st1" d="M40.7,29H11.3c-0.72,0-1.3-0.58-1.3-1.3v-0.4c0-0.72,0.58-1.3,1.3-1.3h29.4c0.72,0,1.3,0.58,1.3,1.3v0.4
	C42,28.42,41.42,29,40.7,29z"/>
<text transform="matrix(1 0 0 1 8.3308 42.2852)" class="st1 st2 st3">Menu</text>
</svg>
